<?xml version="1.0" standalone="no"?>
<!DOCTYPE svg PUBLIC "-//W3C//DTD SVG 20010904//EN"
 "http://www.w3.org/TR/2001/REC-SVG-20010904/DTD/svg10.dtd">
<svg version="1.0" xmlns="http://www.w3.org/2000/svg"
 width="460.000000pt" height="460.000000pt" viewBox="0 0 460.000000 460.000000"
 preserveAspectRatio="xMidYMid meet">

<g transform="translate(0.000000,460.000000) scale(0.100000,-0.100000)"
fill="#000000" stroke="none">
<path d="M1875 4440 c-16 -6 -38 -16 -48 -24 -16 -13 -15 -16 14 -47 l32 -34
-56 -5 c-30 -3 -58 -8 -62 -11 -3 -4 3 -34 15 -68 26 -77 25 -85 -4 -99 -14
-6 -70 -47 -125 -92 l-102 -81 -56 28 c-67 33 -198 158 -234 223 -23 42 -28
45 -64 45 -38 0 -41 2 -82 70 -50 84 -73 103 -108 87 -36 -17 -51 -46 -81
-162 -25 -97 -28 -120 -28 -305 -1 -160 -4 -202 -15 -211 -19 -15 -1 -104 45
-229 52 -138 109 -233 198 -330 25 -27 46 -51 46 -53 0 -3 -9 -19 -20 -37 -19
-31 -22 -32 -105 -37 -72 -5 -91 -10 -120 -32 -74 -57 -70 -16 -70 -741 l0
-650 22 -41 c22 -41 71 -78 119 -90 14 -4 37 -24 50 -44 43 -65 130 -110 212
-110 17 0 32 -3 32 -7 0 -5 -18 -34 -40 -65 -56 -81 -103 -179 -142 -294 -33
-98 -33 -101 -33 -284 0 -182 1 -186 31 -273 18 -48 47 -113 65 -144 52 -88
151 -180 239 -222 69 -33 82 -36 165 -36 83 1 96 4 165 37 127 62 187 130 129
145 -19 5 -19 8 12 39 29 30 31 36 21 59 -6 14 -16 25 -22 25 -15 0 -40 56
-40 90 0 75 68 163 158 206 47 23 71 27 137 28 108 0 178 -21 375 -114 91 -43
208 -92 260 -109 275 -92 569 -71 809 56 108 57 170 106 245 191 162 183 240
378 238 597 -1 192 -60 372 -194 598 -17 29 -54 95 -82 147 l-51 95 -5 416 -5
416 -25 35 c-38 56 -73 71 -175 76 -89 5 -89 5 -127 44 l-38 40 55 60 c100
108 157 213 213 395 36 115 38 135 16 154 -13 11 -15 24 -9 69 20 145 -15 456
-62 550 -23 45 -33 56 -57 58 -34 4 -64 -21 -95 -81 -36 -69 -45 -78 -82 -75
-27 3 -36 -2 -56 -32 -59 -87 -124 -155 -191 -201 -92 -61 -119 -69 -142 -42
-19 24 -143 109 -221 152 -70 38 -231 97 -289 106 -41 6 -64 17 -165 77 -16
10 -68 37 -115 60 -75 36 -95 42 -165 44 -44 2 -93 -1 -110 -6z m166 -41 c21
-7 70 -36 108 -65 111 -83 187 -121 266 -134 197 -31 436 -164 538 -300 81
-107 137 -265 151 -422 l7 -68 -851 0 -850 0 6 83 c11 147 45 252 122 367 40
61 107 130 162 166 19 13 53 38 74 54 l40 31 20 -24 c31 -37 48 -38 107 -9
l54 26 -52 6 c-65 7 -85 25 -107 97 -10 32 -23 64 -28 71 -29 35 96 -9 176
-62 66 -43 104 -53 131 -32 l20 15 -20 7 c-51 19 -225 162 -225 185 0 19 96
24 151 8z m1483 -21 c17 -28 31 -91 51 -228 24 -164 20 -300 -14 -460 -14 -62
-13 -70 4 -64 8 4 15 2 15 -3 0 -20 -49 -151 -76 -203 -45 -89 -167 -240 -193
-240 -29 0 -61 42 -61 81 0 42 30 69 78 69 49 0 67 36 36 71 -13 15 -14 24 -6
48 7 21 7 31 0 33 -7 3 0 34 17 83 17 51 29 111 32 165 3 58 16 117 38 185 37
112 50 175 37 175 -5 0 -15 -26 -22 -57 -37 -160 -106 -309 -185 -401 -49 -57
-115 -112 -135 -112 -6 0 -10 15 -10 33 -1 88 -59 244 -127 339 l-34 48 38 17
c94 43 195 126 263 217 29 39 36 43 38 26 2 -11 7 -20 11 -20 14 0 96 102 126
155 39 71 55 80 79 43z m-2474 -15 c19 -53 34 -74 94 -136 55 -57 60 -60 64
-39 3 21 8 18 43 -30 53 -72 160 -162 231 -195 32 -14 58 -28 58 -30 0 -1 -15
-22 -33 -45 -59 -79 -127 -259 -127 -341 l0 -38 -41 23 c-50 28 -134 123 -182
205 -40 69 -107 255 -107 296 0 33 -10 58 -20 52 -10 -6 24 -158 50 -225 11
-28 20 -69 20 -91 0 -64 21 -180 42 -233 12 -33 16 -52 9 -59 -7 -7 -5 -21 4
-43 8 -20 10 -36 4 -39 -5 -4 -9 -17 -9 -30 0 -23 17 -35 48 -35 20 0 82 -59
82 -77 0 -15 -64 -83 -79 -83 -14 0 -110 109 -149 169 -47 73 -99 186 -116
249 -13 52 -13 52 7 35 19 -18 20 -17 13 17 -22 126 -36 235 -36 300 0 111 27
322 50 387 11 32 20 59 20 60 0 2 11 3 25 3 19 0 28 -7 35 -27z m1080 -1048
c9 -11 11 -34 6 -81 -8 -77 -23 -112 -66 -148 -53 -44 -180 -34 -180 15 0 23
-18 61 -34 71 -19 13 -70 9 -93 -7 -11 -8 -24 -30 -27 -50 -4 -19 -15 -39 -26
-45 -10 -6 -74 -10 -140 -9 -137 1 -146 5 -181 83 -20 46 -35 145 -26 170 6
14 51 16 380 16 323 0 376 -2 387 -15z m178 3 c7 -7 12 -32 12 -56 l0 -43 -47
3 c-48 3 -48 3 -51 41 -2 21 2 45 9 53 14 17 61 18 77 2z m860 0 c29 -29 5
-192 -34 -225 -23 -21 -35 -23 -154 -23 -70 0 -136 3 -144 6 -9 4 -19 23 -22
45 -7 44 -26 59 -75 59 -43 0 -69 -25 -69 -66 0 -43 -21 -54 -100 -54 -88 0
-112 16 -144 95 -14 36 -26 83 -26 106 0 67 9 68 411 69 255 0 348 -3 357 -12z
m-1864 -192 l13 -56 -69 0 -69 0 52 60 c29 33 54 58 56 56 2 -2 10 -29 17 -60z
m2010 3 c43 -46 47 -53 31 -61 -16 -10 -100 -6 -110 4 -6 6 18 108 25 108 3 0
28 -23 54 -51z m269 -148 c15 -6 31 -25 41 -50 14 -37 16 -109 16 -642 0 -631
-1 -642 -45 -679 -15 -13 -93 -15 -536 -18 l-518 -3 -68 34 c-37 19 -106 47
-153 63 -80 27 -95 28 -250 28 -158 0 -169 -1 -261 -31 -53 -17 -124 -45 -158
-62 l-60 -31 -278 0 c-162 0 -294 4 -316 11 -75 20 -72 -8 -75 654 -2 324 0
610 3 634 5 29 16 54 35 73 l28 28 1286 0 c760 0 1295 -4 1309 -9z m205 -1074
c25 -43 23 -50 -33 -116 l-35 -43 0 132 0 133 23 -34 c12 -19 33 -51 45 -72z
m-1874 -293 c-22 -75 -33 -223 -24 -331 13 -152 47 -280 126 -474 20 -50 33
-94 28 -98 -5 -4 -27 -13 -50 -19 -23 -7 -62 -30 -88 -53 -57 -50 -61 -49
-181 30 -185 122 -317 288 -378 476 -42 126 -44 161 -16 192 32 34 153 132
206 166 121 78 304 156 365 157 l26 0 -14 -46z m565 -46 c84 -48 253 -163 274
-186 18 -20 18 -21 -5 -59 -33 -52 -53 -102 -85 -208 -26 -85 -27 -101 -27
-280 0 -140 5 -204 16 -243 8 -29 12 -55 7 -57 -4 -3 -76 29 -160 70 -83 41
-169 78 -190 81 -35 6 -39 10 -45 42 -4 20 -7 122 -7 226 -1 209 13 313 57
445 25 71 91 201 103 201 3 0 31 -14 62 -32z m-1019 -62 c0 -2 -25 -22 -55
-45 l-55 -41 -60 9 c-67 11 -138 40 -159 64 -12 16 -1 17 158 17 94 0 171 -2
171 -4z m1947 -21 c-53 -47 -108 -55 -384 -55 l-253 0 -53 36 c-28 20 -54 38
-56 40 -2 2 171 4 385 4 l389 -1 -28 -24z m181 -84 c60 -48 139 -83 201 -88
51 -5 89 2 199 33 22 6 22 5 22 -83 0 -113 -27 -221 -80 -328 -50 -98 -105
-175 -126 -175 -43 0 -150 65 -219 134 -87 87 -136 179 -175 326 l-18 65 77
72 c42 40 77 72 79 73 2 0 20 -13 40 -29z m-177 -35 c-6 -8 -35 -24 -64 -37
-45 -21 -67 -24 -172 -24 -93 0 -131 4 -170 19 -27 10 -54 23 -59 27 -6 5 80
9 200 10 115 0 218 4 229 9 33 14 49 12 36 -4z m-271 -122 l65 -6 0 -167 c0
-192 17 -286 70 -391 37 -72 99 -141 145 -160 16 -7 30 -16 30 -21 0 -24 -221
-69 -338 -69 l-73 0 -15 35 c-61 146 -77 440 -36 654 24 123 34 145 66 137 12
-3 50 -9 86 -12z"/>
<path d="M2675 3689 c-4 -6 2 -21 14 -33 28 -30 27 -38 -4 -26 -20 8 -27 6
-32 -6 -9 -23 38 -66 122 -109 62 -32 77 -36 90 -25 14 12 14 15 0 36 -13 21
-13 24 -1 24 54 0 1 60 -102 115 -73 39 -78 40 -87 24z"/>
<path d="M1815 3670 c-33 -11 -70 -20 -82 -20 -52 0 -70 -29 -35 -56 16 -13
16 -15 0 -28 -24 -18 -23 -25 8 -36 20 -8 45 -4 108 15 104 32 150 75 79 75
-29 0 -29 7 2 32 53 41 18 49 -80 18z"/>
</g>
</svg>
